<svg xmlns="http://www.w3.org/2000/svg"
 xmlns:xlink="http://www.w3.org/1999/xlink"
 width="26px" height="12px"  viewBox="0 0 26 12">
<path fill-rule="evenodd"  fill="#a3bbc8"
 d="M2.2960205,7.4733887 C2.2960205,7.4733887 2.2879028,7.470703 2.2879028,7.470703 C2.2879028,7.470703 19.24414,7.470703 19.24414,7.470703 C19.24414,7.470703 19.143677,10.329224 19.143677,10.329224 C19.089417,10.383667 19.059692,10.458008 19.059692,10.534058 C19.059692,10.611572 19.089417,10.684326 19.143677,10.738647 C19.143677,10.738647 19.316223,10.912231 19.316223,10.912231 C19.370483,10.966553 19.442688,10.996216 19.519836,10.996216 C19.596985,10.996216 19.669312,10.966553 19.72351,10.91272 C19.72351,10.91272 23.915833,6.701294 23.915833,6.701294 C23.970337,6.6468506 24.000061,6.5736084 23.999939,6.496704 C24.000061,6.4195557 23.970337,6.3464355 23.915833,6.2929688 C23.915833,6.2929688 19.72351,2.079712 19.72351,2.079712 C19.669312,2.026245 19.596985,1.9970703 19.519836,1.9970703 C19.442688,1.9970703 19.370483,2.026245 19.316223,2.079712 C19.316223,2.079712 19.143677,2.2537842 19.143677,2.2537842 C19.089417,2.307373 19.059692,2.380371 19.059692,2.4578857 C19.059692,2.53479 19.089417,2.6036377 19.143677,2.6572266 C19.143677,2.6572266 19.256714,5.5218506 19.256714,5.5218506 C19.256714,5.5218506 2.2921143,5.5218506 2.2921143,5.5218506 C2.1333008,5.5218506 1.9998169,5.6591797 1.9998169,5.818115 C1.9998169,5.818115 1.9998169,7.187866 1.9998169,7.187866 C1.9998169,7.3465576 2.137146,7.4733887 2.2960205,7.4733887 Z"/>
</svg>