<?xml version="1.0" encoding="UTF-8"?>
<svg xmlns="http://www.w3.org/2000/svg" xmlns:xlink="http://www.w3.org/1999/xlink" width="21px" height="16px" viewBox="0 0 16 16" version="1.1">
<g id="surface1">
<path style=" stroke:none;fill:#436372" d="M 12.667969 1.332031 C 13.730469 1.332031 14.601562 2.167969 14.664062 3.214844 L 14.667969 3.332031 L 14.667969 10 C 14.667969 11.0625 13.832031 11.9375 12.785156 11.996094 L 12.667969 12 L 10.332031 12 L 8.535156 14.398438 C 8.40625 14.566406 8.210938 14.667969 8 14.667969 C 7.816406 14.667969 7.640625 14.589844 7.515625 14.460938 L 7.464844 14.398438 L 5.667969 12 L 3.332031 12 C 2.269531 12 1.398438 11.164062 1.335938 10.117188 L 1.332031 10 L 1.332031 3.332031 C 1.332031 2.269531 2.167969 1.398438 3.214844 1.335938 L 3.332031 1.332031 Z M 12.667969 2.667969 L 3.332031 2.667969 C 2.992188 2.667969 2.710938 2.925781 2.671875 3.253906 L 2.667969 3.332031 L 2.667969 10 C 2.667969 10.339844 2.925781 10.625 3.253906 10.664062 L 3.332031 10.667969 L 6 10.667969 C 6.183594 10.667969 6.359375 10.742188 6.484375 10.875 L 6.535156 10.933594 L 8 12.886719 L 9.464844 10.933594 C 9.578125 10.785156 9.742188 10.691406 9.921875 10.671875 L 10 10.667969 L 12.667969 10.667969 C 13.007812 10.667969 13.289062 10.410156 13.328125 10.078125 L 13.332031 10 L 13.332031 3.332031 C 13.332031 2.992188 13.074219 2.710938 12.746094 2.671875 Z M 11.332031 7.332031 C 11.703125 7.332031 12 7.632812 12 8 C 12 8.339844 11.742188 8.625 11.410156 8.664062 L 11.332031 8.667969 L 4.667969 8.667969 C 4.296875 8.667969 4 8.367188 4 8 C 4 7.660156 4.257812 7.375 4.589844 7.335938 L 4.667969 7.332031 Z M 11.332031 4.667969 C 11.703125 4.667969 12 4.964844 12 5.332031 C 12 5.675781 11.742188 5.957031 11.410156 5.996094 L 11.332031 6 L 4.667969 6 C 4.296875 6 4 5.703125 4 5.332031 C 4 4.992188 4.257812 4.710938 4.589844 4.671875 L 4.667969 4.667969 Z M 11.332031 4.667969 "/>
</g>
</svg>
