<svg xmlns="http://www.w3.org/2000/svg"
 xmlns:xlink="http://www.w3.org/1999/xlink"
 width="21px" height="17px"  viewBox="0 0 21 17">
<path fill-rule="evenodd"  fill="#222933"
 d="M4.999817,15.999878 C4.944641,15.999878 4.889038,15.989624 4.8359375,15.968628 C4.6757812,15.905029 4.57135,15.755127 4.57135,15.588867 C4.57135,15.588867 4.57135,13.518188 4.57135,13.518188 C4.57135,13.518188 3.2857056,13.518188 3.2857056,13.518188 C2.5767212,13.518188 1.999939,12.96521 1.999939,12.2854 C1.999939,12.2854 1.999939,2.4238281 1.999939,2.4238281 C1.999939,1.7441406 2.5767212,1.19104 3.2857056,1.19104 C3.2857056,1.19104 18.71405,1.19104 18.71405,1.19104 C19.423035,1.19104 19.999817,1.7441406 19.999817,2.4238281 C19.999817,2.4238281 19.999817,12.2854 19.999817,12.2854 C19.999817,12.96521 19.423035,13.518188 18.71405,13.518188 C18.71405,13.518188 7.76593,13.518188 7.76593,13.518188 C7.76593,13.518188 5.3029785,15.879639 5.3029785,15.879639 C5.2210083,15.95813 5.111389,15.999878 4.999817,15.999878 ZM3.2857056,2.0130615 C3.0493774,2.0130615 2.8571167,2.1973877 2.8571167,2.4238281 C2.8571167,2.4238281 2.8571167,12.2854 2.8571167,12.2854 C2.8571167,12.512085 3.0493774,12.696411 3.2857056,12.696411 C3.2857056,12.696411 4.999878,12.696411 4.999878,12.696411 C5.2366943,12.696411 5.428467,12.880249 5.428467,13.1073 C5.428467,13.1073 5.428467,14.596924 5.428467,14.596924 C5.428467,14.596924 7.2852783,12.816772 7.2852783,12.816772 C7.3657227,12.739746 7.4746704,12.696411 7.588318,12.696411 C7.588318,12.696411 18.71405,12.696411 18.71405,12.696411 C18.950378,12.696411 19.14264,12.512085 19.14264,12.2854 C19.14264,12.2854 19.14264,2.4238281 19.14264,2.4238281 C19.14264,2.1973877 18.950378,2.0130615 18.71405,2.0130615 C18.71405,2.0130615 3.2857056,2.0130615 3.2857056,2.0130615 ZM8.057312,7.3546143 C8.057312,7.6950684 7.76947,7.9710693 7.4144897,7.9710693 C7.059387,7.9710693 6.7715454,7.6950684 6.7715454,7.3546143 C6.7715454,7.01416 7.059387,6.7382812 7.4144897,6.7382812 C7.76947,6.7382812 8.057312,7.01416 8.057312,7.3546143 ZM11.642761,7.3546143 C11.642761,7.6950684 11.354919,7.9710693 10.999939,7.9710693 C10.644836,7.9710693 10.356995,7.6950684 10.356995,7.3546143 C10.356995,7.01416 10.644836,6.7382812 10.999939,6.7382812 C11.354919,6.7382812 11.642761,7.01416 11.642761,7.3546143 ZM14.985596,7.3546143 C14.985596,7.6950684 14.697754,7.9710693 14.342773,7.9710693 C13.987671,7.9710693 13.699829,7.6950684 13.699829,7.3546143 C13.699829,7.01416 13.987671,6.7382812 14.342773,6.7382812 C14.697754,6.7382812 14.985596,7.01416 14.985596,7.3546143 Z"/>
</svg>